<svg xmlns="http://www.w3.org/2000/svg" data-name="Layer 1" viewBox="0 0 512 512"><defs><linearGradient id="a" x1="256" x2="256" y1="16.823" y2="508.882" gradientUnits="userSpaceOnUse"><stop offset="0" stop-color="#00efd1"/><stop offset="1" stop-color="#00acea"/></linearGradient></defs><g data-name="&lt;Group&gt;"><path fill="url(#a)" d="M354.53,8H157.47A37.3,37.3,0,0,0,120,45.3V429.562A37.422,37.422,0,0,0,157.47,467H168v3.278C168,489.018,183.492,504,202.232,504h19.121A33.511,33.511,0,0,0,255,470.278V467h99.53A37.422,37.422,0,0,0,392,429.562V45.3A37.3,37.3,0,0,0,354.53,8ZM264,277.416v-31.89a68.936,68.936,0,0,1,20.733,5.641A65.771,65.771,0,0,1,264,277.416Zm0-47.966V220h28.23a91.643,91.643,0,0,1-2.359,15.774A84.606,84.606,0,0,0,264,229.45ZM264,204v-8.808a85.213,85.213,0,0,0,25.869-6.647A104.866,104.866,0,0,1,292.229,204Zm0-24.9V147.234a65.775,65.775,0,0,1,20.729,26.238A69.3,69.3,0,0,1,264,179.1Zm-16-31.867v31.838a69.744,69.744,0,0,1-20.7-5.664A65.753,65.753,0,0,1,248,147.234Zm0,47.93V204H219.771a105.326,105.326,0,0,1,2.381-15.538A85.96,85.96,0,0,0,248,195.164ZM248,220v9.486a85.568,85.568,0,0,0-25.848,6.379A92.11,92.11,0,0,1,219.77,220Zm0,25.577v31.839a65.749,65.749,0,0,1-20.7-26.172A69.905,69.905,0,0,1,248,245.577Zm50.554,13.859c1.723,1.326,3.4,2.724,5,4.218a70.387,70.387,0,0,1-13.221,9.658A86.9,86.9,0,0,0,298.554,259.436Zm15.439-8.081a85.8,85.8,0,0,0-9.639-7.725A106.656,106.656,0,0,0,308.269,220h17.279A67.912,67.912,0,0,1,313.993,251.355ZM308.269,204a115.107,115.107,0,0,0-3.916-23.389,85.707,85.707,0,0,0,9.639-7.725A71.345,71.345,0,0,1,325.548,204Zm-9.718-38.793a86.885,86.885,0,0,0-8.221-13.874,70.433,70.433,0,0,1,13.223,9.658C301.951,162.485,300.275,163.882,298.551,165.207Zm-85.075-.055c-1.723-1.318-3.4-2.7-5-4.186a70.4,70.4,0,0,1,13.2-9.633A86.848,86.848,0,0,0,213.476,165.152Zm-15.446,7.785a85,85,0,0,0,9.638,7.521A116.241,116.241,0,0,0,203.731,204H186.452A71.077,71.077,0,0,1,198.03,172.937Zm5.7,47.063a107.757,107.757,0,0,0,3.936,23.785,85.192,85.192,0,0,0-9.638,7.52A67.66,67.66,0,0,1,186.452,220Zm9.743,39.493a86.888,86.888,0,0,0,8.193,13.819,70.426,70.426,0,0,1-13.194-9.633C210.075,262.2,211.751,260.811,213.474,259.493ZM264,341.043V297.957a86.019,86.019,0,1,0-16,0v43.086c0,.646-.506.957-1.152.957h-3.759a1.021,1.021,0,0,1-1.152-1,17.042,17.042,0,0,0-17.152-17h-3.6a16.852,16.852,0,0,0-17.151,16.685L203.963,362H136V98H376V362H219.963l.075-21.288c0-.683.578-.712,1.151-.712h3.6a1.021,1.021,0,0,1,1.152,1,17.042,17.042,0,0,0,17.152,17h3.759A17.005,17.005,0,0,0,264,341.043ZM157.47,24H354.53A21.284,21.284,0,0,1,376,45.3V82H136V45.3A21.284,21.284,0,0,1,157.47,24Zm0,427A21.4,21.4,0,0,1,136,429.562V378h67.907l-.007,2h-1.668A34.58,34.58,0,0,0,168,414.386V451ZM239,417.3v.7H220V396h1.353a18.172,18.172,0,0,1,17.914,16.781,8.935,8.935,0,0,0-.436,2.119C238.831,415.7,239,416.568,239,417.3Zm-55,.7v-3.614A18.565,18.565,0,0,1,202.232,396H204v22Zm37.353,70H202.232C192.315,488,184,480.2,184,470.278V434h55v36.278A17.5,17.5,0,0,1,221.353,488ZM354.53,451H255V423h20a8,8,0,0,0,0-16H254.521c-3.383-15.2-16.965-27-33.168-27H219.9l.006-2H376v51.562A21.4,21.4,0,0,1,354.53,451Z" data-name="&lt;Compound Path&gt;"/><path fill="url(#a)" d="M223.978,58h64.044a8,8,0,0,0,0-16H223.978a8,8,0,0,0,0,16Z" data-name="&lt;Path&gt;"/></g></svg>