<svg xmlns="http://www.w3.org/2000/svg" xmlns:xlink="http://www.w3.org/1999/xlink" viewBox="0 0 64 64"><defs><linearGradient id="a" x1="47.01" x2="17.02" y1="57.97" y2="6.026" gradientUnits="userSpaceOnUse"><stop offset="0" stop-color="#00c9ff"/><stop offset="1" stop-color="#92fe9d"/></linearGradient><linearGradient id="b" x1="50.329" x2="31.83" y1="40.242" y2="8.202" xlink:href="#a"/></defs><path fill="url(#a)" d="M32,2A29.9684,29.9684,0,0,0,17.918,5.5083a1,1,0,0,0,.9433,1.7637A27.99,27.99,0,0,1,52.6984,50.8449a4.984,4.984,0,0,0-1.4123-2.9733l-4.2754-4.2749a4.9866,4.9866,0,0,0-6.5849-.4195,13.9956,13.9956,0,0,1-19.6035-19.603,4.9868,4.9868,0,0,0-.419-6.5849l-4.2754-4.2749a4.9911,4.9911,0,0,0-3.79-1.4566,5.0479,5.0479,0,0,0-3.65,1.8584,30.0013,30.0013,0,0,0,20.6953,48.773Q30.6895,62,31.9883,62l.0077,0L32,62c.7933,0,1.58-.0394,2.3619-.1006.2308-.0181.459-.0477.6888-.071.5551-.0563,1.1068-.1245,1.6544-.211.2682-.0423.5348-.0887.8014-.1382.5261-.0977,1.0469-.2113,1.5645-.3364.2474-.06.4957-.1142.7413-.18.7031-.189,1.3985-.3989,2.0829-.6374.0485-.0169.0978-.0306.1462-.0477.7217-.2557,1.4285-.5457,2.1263-.855.2028-.09.4013-.1893.6022-.2839q.7916-.372,1.5594-.7878c.188-.1025.3752-.2055.5611-.3121q.8949-.5115,1.7528-1.083c.0735-.0491.1491-.094.2222-.1438A30.001,30.001,0,0,0,32,2ZM10.24,14.377a3.0441,3.0441,0,0,1,2.2012-1.1216q.0806-.0045.1611-.0044a2.9559,2.9559,0,0,1,2.1114.8774l4.2754,4.2749a3.004,3.004,0,0,1,.2373,3.9658,15.9859,15.9859,0,0,0-1.974,3.469L8.3808,16.9662A28.0244,28.0244,0,0,1,10.24,14.377ZM44.9457,56.8321c-.14.0732-.2824.1418-.4235.2125q-.5943.297-1.202.5667c-.1142.0506-.2277.1028-.3426.1518-.5309.2259-1.0679.439-1.6133.6321-.0179.0063-.0359.0115-.0537.0178-.5257.185-1.059.3509-1.5968.5045q-.1554.0444-.3113.0872a27.9966,27.9966,0,0,1-3.4246.7094c-.1161.0165-.2326.03-.349.0453q-.7324.0951-1.4741.1517c-.1067.0082-.2128.0192-.32.0262q-.865.0561-1.74.0595c-.8444.0028-1.693-.028-2.5443-.1008a28.0048,28.0048,0,0,1-22.22-41.1514l9.1973,9.1974a16.2328,16.2328,0,0,0-.33,6.6122A16.0186,16.0186,0,0,0,29.4463,47.8013a16.2191,16.2191,0,0,0,6.612-.3285l9.1906,9.1907C45.147,56.7181,45.0483,56.7786,44.9457,56.8321ZM49.623,53.76c-.2253.1829-.457.3554-.687.5307-.195.1482-.39.2966-.5884.4395q-.3389.2445-.6841.4778c-.2083.1406-.4207.2746-.6326.41L38.162,46.7485a15.9907,15.9907,0,0,0,3.4689-1.9746,3.0028,3.0028,0,0,1,3.9658.2368l4.2754,4.2749a2.9586,2.9586,0,0,1,.872,2.2735A3.0425,3.0425,0,0,1,49.623,53.76Z"/><path fill="url(#b)" d="M50.4678,39.75a.9986.9986,0,0,0,1.2812-.5981,21.0117,21.0117,0,0,0-26.9-26.9019,1,1,0,0,0,.6836,1.88A19.0117,19.0117,0,0,1,49.87,38.4683,1,1,0,0,0,50.4678,39.75Z"/></svg>