<svg xmlns="http://www.w3.org/2000/svg" xmlns:xlink="http://www.w3.org/1999/xlink" width="32" height="32" viewBox="0 0 32 32"><defs><linearGradient id="a"><stop offset="0" stop-color="#24f7bc"/><stop offset="1" stop-color="#24c4fc"/></linearGradient><linearGradient id="b" x1="949.87" x2="974.39" y1="518.014" y2="544.657" gradientTransform="matrix(1.02524 0 0 1.02524 -969.568 491.682)" gradientUnits="userSpaceOnUse" xlink:href="#a"/></defs><g transform="translate(0 -1020.362)"><rect width="32" height="32" y="1020.362" fill="url(#b)" rx="6.763" ry="6.763"/><path fill="#fff" fill-rule="evenodd" style="text-indent:0;text-align:start;line-height:normal;text-transform:none;block-progression:tb" d="m 15.986968,1028.3622 a 0.50103471,0.50103471 0 0 0 -0.351563,0.1484 l -7.4921872,7.545 a 0.50132954,0.50132954 0 1 0 0.7109375,0.707 l 1.1386719,-1.1465 0,8.2461 a 0.50005,0.50005 0 0 0 0.4999998,0.5 l 2.484375,0 6,0 2.515625,0 a 0.50005,0.50005 0 0 0 0.5,-0.5 l 0,-8.2441 1.136719,1.1445 a 0.50103471,0.50103471 0 0 0 0.355469,0.1465 0.50125155,0.50125155 0 0 0 0.0332,-1.002 l 0.175781,0 -1.701169,-1.7129 0,-2.7617 a 0.50005,0.50005 0 0 0 -0.507812,-0.5078 0.50005,0.50005 0 0 0 -0.492188,0.5078 l 0,1.7559 -4.646484,-4.6778 a 0.50103471,0.50103471 0 0 0 -0.359375,-0.1484 z m 0.0039,1.2129 5.001953,5.0371 0,8.75 -2.015625,0 -0.984375,0 0,-4.5 a 0.50005,0.50005 0 0 0 -0.5,-0.5 l -3,0 a 0.50005,0.50005 0 0 0 -0.5,0.5 l 0,4.5 -1.015625,0 -1.984375,0 0,-8.7539 4.998047,-5.0332 z m 0.002,2.7871 c -1.098647,0 -2,0.9014 -2,2 0,1.0987 0.901353,2 2,2 1.098647,0 2,-0.9013 2,-2 0,-1.0986 -0.901353,-2 -2,-2 z m 0,1 c 0.558207,0 1,0.4418 1,1 0,0.5582 -0.441793,1 -1,1 -0.558207,0 -1,-0.4418 -1,-1 0,-0.5582 0.441793,-1 1,-1 z m -1,6 2,0 0,4 -2,0 0,-4 z" color="#000" font-family="sans-serif" font-weight="400" overflow="visible"/></g></svg>