<svg xmlns="http://www.w3.org/2000/svg" xmlns:xlink="http://www.w3.org/1999/xlink" width="80" height="80" viewBox="0 0 80 80"><defs><linearGradient id="b" x1="1073.403" x2="1097.116" y1="516.451" y2="544.308" gradientTransform="matrix(2.56309 0 0 2.56309 -2739.786 -349.337)" gradientUnits="userSpaceOnUse" xlink:href="#a"/><linearGradient id="a"><stop offset="0" stop-color="#16ff6a"/><stop offset="1" stop-color="#0090a5"/></linearGradient></defs><g transform="translate(0 -972.362)"><rect width="80" height="80" y="972.362" fill="url(#b)" rx="16.907" ry="16.907"/><path fill="#fff" style="line-height:normal;text-indent:0;text-align:start;text-decoration-line:none;text-decoration-style:solid;text-decoration-color:#000;text-transform:none;block-progression:tb;isolation:auto;mix-blend-mode:normal" d="M 32.681641,986.36312 C 30.0967,986.36312 28,988.45872 28,991.0428 l 0,10.7852 -2.119141,1.8007 a 0.50016466,0.50016466 0 0 0 -0.08203,0.09 c -0.476649,0.4381 -0.79297,1.0633 -0.79297,1.7676 l 0,0.8769 -3.005859,0 0,0.9981 -7,0 0,-2.0938 c 0.579027,-0.2085 1,-0.7594 1,-1.4062 0,-0.8225 -0.6775,-1.5 -1.5,-1.5 -0.8225,0 -1.5,0.6775 -1.5,1.5 0,0.6468 0.420973,1.1977 1,1.4062 l 0,3.0938 8,0 0,1.0019 3.005859,0 0,3 -3.005859,0 0,0.9981 -9.09375,0 c -0.208483,-0.5791 -0.759413,-1 -1.40625,-1 -0.8225,0 -1.5,0.6775 -1.5,1.5 0,0.8225 0.6775,1.5 1.5,1.5 0.646373,0 1.197417,-0.4217 1.40625,-1 l 9.09375,0 0,1.0019 3,0 0,3 -3,0 0,0.9981 -8,0 0,3.0937 c -0.579027,0.2085 -1,0.7594 -1,1.4063 0,0.8225 0.6775,1.5 1.5,1.5 0.8225,0 1.5,-0.6775 1.5,-1.5 0,-0.6469 -0.420973,-1.1978 -1,-1.4063 l 0,-2.0937 7,0 0,1.0019 3.050781,0 c 0,0 0,0 0,0 0.233891,1.1371 1.244912,1.9981 2.449219,1.9981 l 1.513672,0 0,3 0.986328,0 0,5.998 -2.09375,0 c -0.208483,-0.5791 -0.759413,-1 -1.40625,-1 -0.8225,0 -1.5,0.6775 -1.5,1.5 0,0.8225 0.6775,1.5 1.5,1.5 0.646373,0 1.197417,-0.4217 1.40625,-1 l 3.09375,0 0,-6.9981 1.013672,0 0,-3 2.986328,0 0,3 1,0 0,9.0918 c -0.579027,0.2085 -1,0.7594 -1,1.4063 0,0.8225 0.6775,1.5 1.5,1.5 0.8225,0 1.5,-0.6775 1.5,-1.5 0,-0.6469 -0.420973,-1.1978 -1,-1.4063 l 0,-9.0918 1,0 0,-3 4,0 0,3 1,0 0,9.0918 c -0.579027,0.2085 -1,0.7594 -1,1.4063 0,0.8225 0.6775,1.5 1.5,1.5 0.8225,0 1.5,-0.6775 1.5,-1.5 0,-0.6469 -0.420973,-1.1978 -1,-1.4063 l 0,-9.0918 1,0 0,-3 2.986328,0 0,3 1.013672,0 0,6.9981 3.09375,0 c 0.208833,0.5783 0.759877,1 1.40625,1 0.8225,0 1.5,-0.6775 1.5,-1.5 0,-0.8225 -0.6775,-1.5 -1.5,-1.5 -0.646837,0 -1.197767,0.4209 -1.40625,1 l -2.09375,0 0,-5.9981 0.986328,0 0,-3 1.513672,0 c 1.27396,0 2.320419,-0.9665 2.470703,-2.2012 l 3.029297,0 0,-0.8007 7,0 0,2.0937 c -0.579027,0.2085 -1,0.7594 -1,1.4063 0,0.8225 0.6775,1.5 1.5,1.5 0.8225,0 1.5,-0.6775 1.5,-1.5 0,-0.6469 -0.420973,-1.1978 -1,-1.4063 l 0,-3.0937 -8,0 0,-0.9981 -3,0 0,-3 3,0 0,-1.0019 9.09375,0 c 0.208833,0.5783 0.759877,1 1.40625,1 0.8225,0 1.5,-0.6775 1.5,-1.5 0,-0.8225 -0.6775,-1.5 -1.5,-1.5 -0.646837,0 -1.197767,0.4209 -1.40625,1 l -9.09375,0 0,-0.9981 -3,0 0,-3 3,0 0,-1.0019 8,0 0,-3.0938 c 0.579027,-0.2085 1,-0.7594 1,-1.4062 0,-0.8225 -0.6775,-1.5 -1.5,-1.5 -0.8225,0 -1.5,0.6775 -1.5,1.5 0,0.6468 0.420973,1.1977 1,1.4062 l 0,2.0938 -7,0 0,-0.9981 -3,0 0,-0.8769 c 0,-0.709 -0.318993,-1.339 -0.800781,-1.7774 a 0.50016466,0.50016466 0 0 0 -0.07422,-0.076 L 52,1001.826 l 0,-10.46288 4,0 0,-0.5 c 0,-2.47936 -2.020641,-4.5 -4.5,-4.5 l -4.181641,0 -14.636718,0 z m 0,1 0.818359,0 c 1.938919,0 3.5,1.56108 3.5,3.5 l 0,0.5 14,0 0,14.36918 -7.822266,6.6308 -6.347656,0 L 29,1005.7264 29,991.0428 c 0,-2.04712 1.633181,-3.67968 3.681641,-3.67968 z m 3.523437,0 11.113281,0 4.181641,0 c 1.761429,0 3.149756,1.31042 3.400391,3 l -3.400391,0 -13.601562,0 c -0.143606,-1.23058 -0.759851,-2.27686 -1.69336,-3 z M 40,994.36116 c -2.828782,0 -5.131934,2.14172 -5.439453,4.88672 l -0.06055,0.50586 0,0.10742 0,2.77934 c 0,1.2476 0.851835,2.2901 2,2.6093 l 0,1.4121 c 0,0.9332 0.766067,1.7012 1.699219,1.7012 l 3.601562,0 c 0.933152,0 1.699219,-0.768 1.699219,-1.7012 l 0,-1.4101 c 1.148168,-0.3197 2,-1.3637 2,-2.6113 l 0,-2.77738 0,-0.10743 -0.06055,-0.50781 C 45.131913,996.50288 42.828791,994.36116 40,994.36116 Z m 0,1 c 2.328454,0 4.19609,1.7418 4.447266,4 l 0.05273,0.45313 0,0.0488 0,2.77741 c 0,0.8828 -0.641909,1.5869 -1.490234,1.6992 l -0.509766,0 0,2.3222 c 0,0.3965 -0.30277,0.7012 -0.699219,0.7012 l -0.300781,0 0,-2 -1,0 0,2 -1,0 0,-2 -1,0 0,2 -0.300781,0 c -0.396445,0 -0.699215,-0.3047 -0.699215,-0.7012 l 0,-2.3222 -0.490234,0 C 36.151797,1004.236 35.5,1003.53 35.5,1002.6405 l 0,-2.77934 0,-0.0469 0.05273,-0.45313 c 0.251157,-2.2582 2.118823,-4 4.447266,-4 z m -2.527344,3.13086 A 0.50005,0.50005 0 0 0 37.25,998.56234 c -0.524171,0.3027 -0.815326,0.89404 -0.736328,1.49416 0.079,0.6 0.513024,1.0972 1.097656,1.2539 0.584636,0.1567 1.209662,-0.055 1.578125,-0.5352 0.368454,-0.4802 0.412005,-1.13994 0.109375,-1.66404 a 0.50050307,0.50050307 0 1 0 -0.867187,0.5 c 0.101835,0.1763 0.08883,0.39324 -0.03516,0.55474 -0.123986,0.1616 -0.330609,0.2304 -0.527343,0.1777 -0.196722,-0.053 -0.338653,-0.2161 -0.365235,-0.41798 -0.02658,-0.2019 0.06971,-0.39615 0.246094,-0.49805 a 0.50005,0.50005 0 0 0 -0.277344,-0.93555 z m 5.003906,0 a 0.50005,0.50005 0 0 0 -0.224609,0.93555 c 0.176386,0.1019 0.270721,0.29605 0.244141,0.49805 -0.02658,0.20188 -0.168514,0.36498 -0.365235,0.41798 -0.196727,0.053 -0.403356,-0.016 -0.527343,-0.1777 -0.12399,-0.1616 -0.136992,-0.37834 -0.03516,-0.55474 a 0.50050307,0.50050307 0 1 0 -0.867187,-0.5 c -0.30263,0.5242 -0.259079,1.18384 0.109375,1.66404 0.368463,0.4799 0.993488,0.6918 1.578125,0.5352 0.584631,-0.1567 1.018656,-0.6519 1.097656,-1.252 0.07899,-0.59997 -0.210204,-1.19346 -0.734375,-1.49606 a 0.50005,0.50005 0 0 0 -0.275391,-0.0703 z m -2.484374,3.87108 a 0.50005,0.50005 0 0 0 -0.345704,0.1465 l -1,1 A 0.50005,0.50005 0 0 0 39,1004.3631 l 2,0 a 0.50005,0.50005 0 0 0 0.353516,-0.8535 l -1,-1 a 0.50005,0.50005 0 0 0 -0.361328,-0.1465 z M 28,1003.1385 l 0,1.7402 -1.025391,-0.8671 L 28,1003.1385 Z m 24,0 1.029297,0.8731 -1.029297,0.873 0,-1.7461 z m -37.5,0.2207 c 0.2821,0 0.5,0.218 0.5,0.5 0,0.2821 -0.2179,0.5 -0.5,0.5 -0.2821,0 -0.5,-0.2179 -0.5,-0.5 0,-0.282 0.2179,-0.5 0.5,-0.5 z m 51,0 c 0.2821,0 0.5,0.218 0.5,0.5 0,0.2821 -0.2179,0.5 -0.5,0.5 -0.2821,0 -0.5,-0.2179 -0.5,-0.5 0,-0.282 0.2179,-0.5 0.5,-0.5 z m -39.160156,1.4238 9.875,8.3672 -9.875,8.3691 c -0.144883,-0.2194 -0.333985,-0.4175 -0.333985,-0.7031 l 0,-15.332 c 0,-0.2855 0.189374,-0.482 0.333985,-0.7012 z m 27.326172,0 C 53.810712,1005.0042 54,1005.2008 54,1005.4862 l 0,15.332 c 0,0.285 -0.189707,0.4822 -0.333984,0.7012 l -9.875,-8.3672 9.875,-8.3672 z M 23,1007.3631 l 2.005859,0 0,1 -2.005859,0 0,0 0,-0.998 z m 32,0 2,0 0,0.9981 0,0 -2,0 0,-1 z m -43.5,5.9981 c 0.2821,0 0.5,0.218 0.5,0.5 0,0.2821 -0.2179,0.5 -0.5,0.5 -0.2821,0 -0.5,-0.2179 -0.5,-0.5 0,-0.282 0.2179,-0.5 0.5,-0.5 z m 57,0 c 0.2821,0 0.5,0.218 0.5,0.5 0,0.2821 -0.2179,0.5 -0.5,0.5 -0.2821,0 -0.5,-0.2179 -0.5,-0.5 0,-0.282 0.2179,-0.5 0.5,-0.5 z m -45.5,0 2,0 0,1 -2,0 0,0 0,-0.9981 z m 14.513672,0 4.980469,0 10.509765,8.9082 c -0.157891,0.055 -0.325109,0.092 -0.503906,0.092 l -25,0 c -0.17727,0 -0.343241,-0.035 -0.5,-0.09 l 10.513672,-8.9101 z m 17.486328,0 2,0 0,0.998 0,0 -2,0 0,-1 z m -32,6 2,0 0,1 -2,0 0,0 0,-0.9981 z m 32,0 2,0 0,0.7988 -2,0 0,-0.7988 z m -40.5,3.998 c 0.2821,0 0.5,0.218 0.5,0.5 0,0.2821 -0.2179,0.5 -0.5,0.5 -0.2821,0 -0.5,-0.2179 -0.5,-0.5 0,-0.282 0.2179,-0.5 0.5,-0.5 z m 51,0 c 0.2821,0 0.5,0.218 0.5,0.5 0,0.2821 -0.2179,0.5 -0.5,0.5 -0.2821,0 -0.5,-0.2179 -0.5,-0.5 0,-0.282 0.2179,-0.5 0.5,-0.5 z m -35.486328,0 1,0 0,2 -0.01367,0 0,-0.033 -0.986328,0 0,-1.9668 z m 5.986328,0 1,0 0,1.9668 -1,0 0,-1.9668 z m 7,0 1,0 0,1.9668 -1,0 0,-1.9668 z m 5.986328,0 1,0 0,1.9668 -0.986328,0 0,0.033 -0.01367,0 0,-2 z M 26.5,1032.3612 c 0.2821,0 0.5,0.218 0.5,0.5 0,0.2821 -0.2179,0.5 -0.5,0.5 -0.2821,0 -0.5,-0.2179 -0.5,-0.5 0,-0.282 0.2179,-0.5 0.5,-0.5 z m 27,0 c 0.2821,0 0.5,0.218 0.5,0.5 0,0.2821 -0.2179,0.5 -0.5,0.5 -0.2821,0 -0.5,-0.2179 -0.5,-0.5 0,-0.282 0.2179,-0.5 0.5,-0.5 z m -17,4 c 0.2821,0 0.5,0.218 0.5,0.5 0,0.2821 -0.2179,0.5 -0.5,0.5 -0.2821,0 -0.5,-0.2179 -0.5,-0.5 0,-0.282 0.2179,-0.5 0.5,-0.5 z m 7,0 c 0.2821,0 0.5,0.218 0.5,0.5 0,0.2821 -0.2179,0.5 -0.5,0.5 -0.2821,0 -0.5,-0.2179 -0.5,-0.5 0,-0.282 0.2179,-0.5 0.5,-0.5 z" color="#000" font-family="sans-serif" font-weight="400" overflow="visible" white-space="normal"/></g></svg>