<svg width="67px" height="67px" xmlns="http://www.w3.org/2000/svg" data-name="Layer 1" viewBox="0 0 512 512"><defs><linearGradient id="a" x1="256" x2="256" y1="20.767" y2="486.056" gradientUnits="userSpaceOnUse"><stop offset="0" stop-color="#33CC00"/><stop offset="1" stop-color="#00acea"/></linearGradient></defs><g data-name="&lt;Group&gt;"><path fill="url(#a)" d="M487.582,181.064,415,129.794V52.511c0-4.419-3.406-7.511-7.824-7.511H104.824C100.406,45,97,48.092,97,52.511v76.152L24.351,181.112A8.037,8.037,0,0,0,21,187.6V459.489c0,4.419,3.476,7.511,7.9,7.511h454.21c4.419,0,7.895-3.092,7.895-7.511V187.6A8.034,8.034,0,0,0,487.582,181.064ZM196.943,333.1,37,445.62v-240.5Zm12.905,10.165L251,376.319a8.051,8.051,0,0,0,5,1.814,7.953,7.953,0,0,0,5-1.723l41.36-33.323L455.693,451H56.359Zm38.009-186.41a11.516,11.516,0,1,1,16.286,0h0A11.529,11.529,0,0,1,247.857,156.856Zm67.4,176.084L475,205.121V445.6ZM470.21,188.405,415,232.582V149.387ZM399,61V245.385L299,325.25V209h32.12c4.418,0,7.88-3.96,7.88-8.378v-21.2a28.791,28.791,0,0,0,11.516-6.862,27.458,27.458,0,1,0-38.913,0,28.386,28.386,0,0,0,11.4,6.862V193H291.364c-4.418,0-8.364,3.2-8.364,7.622V338.053l-19,15.494V175.033a27.537,27.537,0,1,0-16,0V353.547l-19-15.494V200.622c0-4.419-3.946-7.622-8.364-7.622H189V179.418a28.383,28.383,0,0,0,11.4-6.862,27.575,27.575,0,1,0-38.911,0A28.787,28.787,0,0,0,173,179.418v21.2c0,4.418,3.462,8.378,7.88,8.378H213V325.25L113,245.385V61ZM322.977,161.242a11.516,11.516,0,1,1,16.286,0A11.441,11.441,0,0,1,322.977,161.242Zm-150.24,0a11.516,11.516,0,1,1,16.286,0A11.441,11.441,0,0,1,172.737,161.242ZM97,232.582,41.707,188.339,97,148.4Z" data-name="&lt;Compound Path&gt;"/></g></svg>