<svg width="100px" height="100px" xmlns="http://www.w3.org/2000/svg" xmlns:xlink="http://www.w3.org/1999/xlink" viewBox="0 0 64 64"><defs><linearGradient id="a" x1="5.51" x2="62.253" y1="68.387" y2="7.163" gradientUnits="userSpaceOnUse"><stop offset="0" stop-color="#00acea"/><stop offset="1" stop-color="#33CC00"/></linearGradient><linearGradient id="b" x1="16.076" x2="72.82" y1="78.181" y2="16.957" xlink:href="#a"/><linearGradient id="c" x1="-2.318" x2="54.426" y1="61.132" y2="-.091" xlink:href="#a"/><linearGradient id="d" x1="-8.773" x2="47.971" y1="55.15" y2="-6.074" xlink:href="#a"/><linearGradient id="e" x1=".367" x2="57.111" y1="63.621" y2="2.397" xlink:href="#a"/><linearGradient id="f" x1="-19.571" x2="37.173" y1="45.142" y2="-16.082" xlink:href="#a"/><linearGradient id="g" x1="12.259" x2="69.002" y1="74.642" y2="13.419" xlink:href="#a"/></defs><g data-name="house-building-home"><path fill="url(#a)" d="M34,56V41a1,1,0,0,0-1-1H21a1,1,0,0,0-1,1V56H7V25.72l20-6.67,16.11,5.37A13.023,13.023,0,0,0,36,36c0,6.95,11.78,19.18,12.28,19.7a1.014,1.014,0,0,0,1.44,0C50.22,55.18,62,42.95,62,36A13.025,13.025,0,0,0,52,23.36V22a1.014,1.014,0,0,0-.68-.95l-24-8a1,1,0,0,0-.64,0l-24,8A1.014,1.014,0,0,0,2,22v4a.983.983,0,0,0,.42.81A.939.939,0,0,0,3,27a1.185,1.185,0,0,0,.32-.05L5,26.39V56H2v2H62V56ZM60,36c0,4.76-7.37,13.65-11,17.55C45.37,49.65,38,40.76,38,36a11,11,0,0,1,22,0ZM4,24.61V22.72l23-7.67,23,7.67v.33c-.33-.02-.66-.05-1-.05a12.86,12.86,0,0,0-2.86.33L27.32,17.05a1,1,0,0,0-.64,0ZM32,56H22V42H32Z"/><rect width="60" height="2" x="2" y="60" fill="url(#b)"/><path fill="url(#c)" d="M30,26H24a1,1,0,0,0-1,1v5a1,1,0,0,0,1,1h6a1,1,0,0,0,1-1V27A1,1,0,0,0,30,26Zm-1,5H25V28h4Z"/><path fill="url(#d)" d="M18,26H12a1,1,0,0,0-1,1v5a1,1,0,0,0,1,1h6a1,1,0,0,0,1-1V27A1,1,0,0,0,18,26Zm-1,5H13V28h4Z"/><path fill="url(#e)" d="M41,17a3.94,3.94,0,0,0,2.541-.919,7.1,7.1,0,0,0,7.294-.23A4.95,4.95,0,0,0,54,17a5,5,0,1,0-.65-9.952A7,7,0,0,0,40.056,9.112,4,4,0,0,0,41,17Zm0-6a1,1,0,0,0,1-1,5,5,0,0,1,9.777-1.48,1,1,0,0,0,.5.6.993.993,0,0,0,.774.057A2.963,2.963,0,0,1,54,9,3,3,0,1,1,51.7,13.9a1,1,0,0,0-.688-.361c-.028,0-.055,0-.083,0a1,1,0,0,0-.655.244A5.077,5.077,0,0,1,44,13.99a1,1,0,0,0-1.4.2A1.979,1.979,0,0,1,41,15a2,2,0,0,1,0-4Z"/><path fill="url(#f)" d="M7,15H19A5,5,0,0,0,19,5a4.946,4.946,0,0,0-1.67.289A5.981,5.981,0,0,0,6.8,5,5,5,0,0,0,7,15ZM7,7a.981.981,0,0,1,.134.015l.165.02a1,1,0,0,0,1.021-.6,3.984,3.984,0,0,1,7.513.5,1,1,0,0,0,1.516.566A3,3,0,1,1,19,13H7A3,3,0,0,1,7,7Z"/><path fill="url(#g)" d="M44,35a5,5,0,1,0,5-5A5.006,5.006,0,0,0,44,35Zm8,0a3,3,0,1,1-3-3A3,3,0,0,1,52,35Z"/></g></svg>