<svg xmlns="http://www.w3.org/2000/svg" xmlns:xlink="http://www.w3.org/1999/xlink" width="48" height="48" viewBox="0 0 48 48"><defs><linearGradient id="b" x1="868.253" x2="937.656" y1="521.354" y2="588.736" gradientTransform="matrix(1.53785 0 0 1.53785 -1326.968 211.343)" gradientUnits="userSpaceOnUse" xlink:href="#a"/><linearGradient id="a"><stop offset="0" stop-color="#24f3d2"/><stop offset=".394" stop-color="#0674f0"/><stop offset=".507" stop-color="#6961b5"/><stop offset=".813" stop-color="#f34660"/><stop offset="1" stop-color="#ee078d"/></linearGradient></defs><g transform="translate(0 -1004.362)"><rect width="48" height="48" y="1004.362" fill="url(#b)" rx="10.144" ry="10.144"/><path fill="#fff" style="line-height:normal;text-indent:0;text-align:start;text-decoration-line:none;text-decoration-style:solid;text-decoration-color:#000;text-transform:none;block-progression:tb;isolation:auto;mix-blend-mode:normal" d="m 15.856449,1017.0632 c -3.398664,0 -6.162109,2.8056 -6.162109,6.2402 0,1.7029 0.690031,3.243 1.783203,4.3672 0.01715,0.032 0.02411,0.057 0.08203,0.1133 l -0.0293,-0.029 2.478516,2.8223 -0.04297,-0.166 c 9.3e-5,0.1206 0.08676,0.2371 0.166015,0.3281 l 1.345703,1.5508 c 0.03978,0.045 0.08742,0.083 0.140625,0.1113 l 0,0.4062 1,0 0,-0.9296 1.00586,-1.1368 c 0.07779,-0.088 0.219705,-0.2008 0.222657,-0.3183 l -0.09766,0.1523 2.77539,-3.1914 c 0.05528,-0.064 0.09358,-0.1402 0.111328,-0.2226 0.8352,-1.0626 1.38086,-2.388 1.38086,-3.8536 0,-3.3632 -2.659685,-6.0859 -5.960939,-6.1992 -0.06275,-0.028 -0.130562,-0.042 -0.199214,-0.043 z m -0.0078,1.002 0.0019,0 0.0059,0 c 2.849687,0 5.160157,2.3396 5.160157,5.2402 0,1.3088 -0.486802,2.5054 -1.271485,3.4258 -0.027,0.032 -0.04996,0.066 -0.06836,0.1035 l -2.804688,3.2246 c -0.07708,0.088 -0.163606,0.2011 -0.166015,0.3184 l 0.04297,-0.1563 -0.878907,0.9941 -0.861328,-0.9921 0.04297,0.164 c -1.61e-4,-0.1215 -0.08757,-0.2389 -0.167969,-0.3301 l -2.601561,-2.9628 c -0.0038,0 -0.0077,-0.01 -0.01172,-0.014 -0.01584,-0.026 -0.02471,-0.042 -0.05273,-0.072 l -0.0078,-0.012 c -0.930358,-0.9521 -1.515628,-2.2499 -1.515628,-3.6934 0,-2.8978 2.30847,-5.2336 5.154299,-5.2382 z m 0.0078,2.4941 c -1.495919,0 -2.714843,1.2387 -2.714843,2.7441 0,1.5054 1.218897,2.7461 2.714843,2.7461 1.495939,0 2.712891,-1.2407 2.712891,-2.7461 0,-1.5054 -1.216979,-2.7441 -2.712891,-2.7441 z m 0,1 c 0.945949,0 1.712891,0.7738 1.712891,1.7441 0,0.9704 -0.76697,1.7461 -1.712891,1.7461 -0.945933,0 -1.714843,-0.7757 -1.714843,-1.7461 0,-0.9703 0.768883,-1.7441 1.714843,-1.7441 z m 16.28711,1.7402 c -3.398665,0 -6.160156,2.8057 -6.160157,6.2403 0,1.7009 0.688335,3.2394 1.779297,4.3632 0.01606,0.031 0.02395,0.059 0.08398,0.1172 l 2.451172,2.791 -0.0625,-0.166 c -4.49e-4,0.1204 0.10505,0.2369 0.183593,0.3282 l 1.207032,1.3886 -0.560547,0 0,1 0.878906,0 0,-0.709 c 0.06275,0.028 0.130567,0.043 0.199219,0.043 l 0.02344,0 c 0.143293,3e-4 0.27984,-0.061 0.375,-0.168 l 1.490235,-1.7148 c 0.07822,-0.089 0.0014,-0.038 0.0039,-0.1562 l 0,0.1523 2.777344,-3.1914 c 0.05588,-0.065 0.09421,-0.1428 0.111328,-0.2266 0.834453,-1.0625 1.380859,-2.3867 1.380859,-3.8515 0,-3.3633 -2.661639,-6.086 -5.96289,-6.1993 -0.06289,-0.027 -0.130704,-0.041 -0.199217,-0.041 z m 0,1 c 2.849708,0 5.162109,2.3396 5.162109,5.2403 0,1.3088 -0.488725,2.5051 -1.273437,3.4257 -0.02618,0.031 -0.04848,0.065 -0.06641,0.1016 l -2.80664,3.2285 c -0.07708,0.088 -0.120638,0.2011 -0.123047,0.3184 l 0.125,-0.3164 -1.001953,1.1523 -0.861328,-0.9902 0.03125,0.086 c -1.61e-4,-0.1215 -0.07585,-0.1608 -0.15625,-0.2519 l -2.601563,-2.9629 -0.0098,-0.012 c -0.01632,-0.027 -0.02433,-0.044 -0.05664,-0.078 -0.936074,-0.9492 -1.521485,-2.2487 -1.521485,-3.6972 0,-2.9006 2.310481,-5.2403 5.160157,-5.2403 z m 0,2.4942 c -1.495912,0 -2.714844,1.2407 -2.714844,2.7461 0,1.5054 1.218905,2.7441 2.714844,2.7441 1.495946,0 2.714844,-1.2387 2.714843,-2.7441 2e-6,-1.5054 -1.218924,-2.7461 -2.714843,-2.7461 z m 0,1 c 0.94596,0 1.714844,0.7757 1.714843,1.7461 0,0.9704 -0.76891,1.7441 -1.714843,1.7441 -0.945921,0 -1.714844,-0.7737 -1.714844,-1.7441 0,-0.9704 0.768895,-1.7461 1.714844,-1.7461 z m -14.525391,4.0136 0,1 1,0 0,-1 z m 2,0 0,1 1,0 0,-1 z m 2,0 0,0 -0.326172,-10e-5 0,1.023 1,0 0,-0.5258 0,-0.5 -0.5,0 z m -0.326172,2.3262 0,1 1,0 0,-1 z m 0,2 0,1 1,0 0,-1 z m 0,2.1997 0,0.5288 0,0.5 0.5,0 0.273438,0 0,-0.01 0.226562,0 0,-1.0249 z m 1.773438,0.029 0,1 1,0 0,-1 z m 2,0 0,1 1,0 0,-1 z m 2,0 0,1 1,0 0,-1 z m 2,0 0,1 1,0 0,-1 z" color="#000" font-family="sans-serif" font-weight="400" overflow="visible" white-space="normal"/></g></svg>