<svg xmlns="http://www.w3.org/2000/svg" xmlns:xlink="http://www.w3.org/1999/xlink" width="25" height="25" viewBox="0 0 25 25"><defs><linearGradient id="a"><stop offset="0" stop-color="#24f3d2"/><stop offset=".394" stop-color="#0674f0"/><stop offset=".507" stop-color="#6961b5"/><stop offset=".813" stop-color="#f34660"/><stop offset="1" stop-color="#ee078d"/></linearGradient><linearGradient id="b" x1="868.253" x2="937.656" y1="521.354" y2="588.736" gradientTransform="matrix(.80097 0 0 .80097 -691.13 614.331)" gradientUnits="userSpaceOnUse" xlink:href="#a"/></defs><g transform="translate(0 -1027.362)"><rect width="25" height="25" y="1027.362" fill="url(#b)" rx="5.283" ry="5.283"/><path fill="#fff" style="text-indent:0;text-align:start;line-height:normal;text-transform:none;block-progression:tb" d="M 13 5 C 11.595735 5 10.216138 5.3604 9 6.0625 L 9.5 6.9375 C 10.564153 6.3231 11.771211 6 13 6 L 13 5 z M 15.0625 5.28125 L 14.8125 6.25 C 15.999408 6.568 17.068615 7.1936 17.9375 8.0625 L 18.65625 7.34375 C 17.663278 6.35085 16.418913 5.64475 15.0625 5.28125 z M 7.34375 7.34375 C 6.350776 8.33675 5.6446941 9.5811 5.28125 10.9375 L 6.25 11.1875 C 6.5680259 10.0006 7.1936139 8.9313 8.0625 8.0625 L 7.34375 7.34375 z M 10 8 L 10 8.5 L 10 18 L 16 18 L 16 8 L 10 8 z M 11 9 L 15 9 L 15 15 L 11 15 L 11 9 z M 19.9375 9 L 19.0625 9.5 C 19.676883 10.5642 20 11.7713 20 13 L 21 13 C 20.999993 11.5957 20.639628 10.2161 19.9375 9 z M 12 10 L 12 11 L 14 11 L 14 10 L 12 10 z M 5 13 C 5.0000071 14.4043 5.3603642 15.7839 6.0625 17 L 6.9375 16.5 C 6.323109 15.4359 6 14.2288 6 13 L 5 13 z M 19.75 14.8125 C 19.431974 15.9994 18.806386 17.0686 17.9375 17.9375 L 18.65625 18.65625 C 19.649224 17.66325 20.355306 16.4189 20.71875 15.0625 L 19.75 14.8125 z M 11 16 L 15 16 L 15 17 L 11 17 L 11 16 z M 8.0625 17.9375 L 7.34375 18.65625 C 8.3367103 19.64925 9.5810747 20.35525 10.9375 20.71875 L 11.1875 19.75 C 10.000582 19.4319 8.9313741 18.8064 8.0625 17.9375 z M 16.5 19.0625 C 15.435846 19.6769 14.228782 20 13 20 L 13 21 C 14.404258 21 15.783869 20.6397 17 19.9375 L 16.5 19.0625 z " color="#000" font-family="sans-serif" font-weight="400" overflow="visible" transform="translate(0 1027.362)"/></g></svg>