<svg xmlns="http://www.w3.org/2000/svg" xmlns:xlink="http://www.w3.org/1999/xlink" width="48" height="48" viewBox="0 0 48 48"><defs><linearGradient id="b" x1="868.253" x2="937.656" y1="521.354" y2="588.736" gradientTransform="translate(-1326.968 -793.02) scale(1.53785)" gradientUnits="userSpaceOnUse" xlink:href="#a"/><linearGradient id="a"><stop offset="0" stop-color="#24f3d2"/><stop offset=".394" stop-color="#0674f0"/><stop offset=".507" stop-color="#6961b5"/><stop offset=".813" stop-color="#f34660"/><stop offset="1" stop-color="#ee078d"/></linearGradient></defs><rect width="48" height="48" fill="url(#b)" rx="10.144" ry="10.144"/><path fill="#fff" d="M 19.5,12 C 18.122,12 17,13.122 17,14.5 l 0,1.5 0,15 0,2.5 c 0,1.378 1.122,2.5 2.5,2.5 l 9,0 C 29.878,36 31,34.878 31,33.5 L 31,31 31,16 31,14.5 C 31,13.122 29.878,12 28.5,12 l -9,0 z m 0,1 9,0 c 0.827,0 1.5,0.673 1.5,1.5 l 0,1.5 -12,0 0,-1.5 C 18,13.673 18.673,13 19.5,13 Z M 22,14 A 0.5,0.5 0 0 0 21.5,14.5 0.5,0.5 0 0 0 22,15 0.5,0.5 0 0 0 22.5,14.5 0.5,0.5 0 0 0 22,14 Z m 2,0 c -0.276,0 -0.5,0.224 -0.5,0.5 0,0.276 0.224,0.5 0.5,0.5 l 2,0 c 0.276,0 0.5,-0.224 0.5,-0.5 C 26.5,14.224 26.276,14 26,14 l -2,0 z m -6,3 12,0 0,13 -12,0 0,-13 z m 0,14 12,0 0,2.5 c 0,0.827 -0.673,1.5 -1.5,1.5 l -9,0 C 18.673,35 18,34.327 18,33.5 L 18,31 Z m 6,1 a 1,1 0 0 0 -1,1 1,1 0 0 0 1,1 1,1 0 0 0 1,-1 1,1 0 0 0 -1,-1 z"/></svg>