<svg xmlns="http://www.w3.org/2000/svg" xmlns:xlink="http://www.w3.org/1999/xlink" viewBox="0 0 32 32"><defs><linearGradient id="a" x1="-.519" x2="28.815" y1="3.227" y2="31.56" gradientUnits="userSpaceOnUse"><stop offset="0" stop-color="#e17fff"/><stop offset=".095" stop-color="#d67dfc"/><stop offset=".264" stop-color="#b876f3"/><stop offset=".487" stop-color="#876be5"/><stop offset=".751" stop-color="#455dd1"/><stop offset="1" stop-color="#004ebd"/></linearGradient><linearGradient id="b" x1="9.164" x2="38.497" y1="-6.797" y2="21.536" xlink:href="#a"/><linearGradient id="c" x1="6.296" x2="35.629" y1="-3.828" y2="24.506" xlink:href="#a"/></defs><path fill="url(#a)" fill-rule="evenodd" d="M20.906,18.714c-1.407-.392-2.62.261-3.76,1.207-.489.406-.967.858-1.468,1.209a2.021,2.021,0,0,1-1.1.457,1.977,1.977,0,0,1-1.293-.627,12.367,12.367,0,0,1-2.261-3.045,12.585,12.585,0,0,1-1.515-3.481,1.959,1.959,0,0,1,.09-1.419,1.959,1.959,0,0,1,.929-.71c.551-.256,1.181-.443,1.778-.665a4.2,4.2,0,0,0,2.964-2.667c.375-1.341-.239-3.826-1.573-5.639C12.247,1.369,10.078.235,7.75,1.579,5.741,2.739,3.277,4.237,2.283,7.154c-.96,2.818-.573,7.082,3.347,13.872s7.42,9.258,10.34,9.835c3.024.6,5.552-.786,7.562-1.946,2.329-1.345,2.451-3.769,1.485-5.993C24.13,20.879,22.3,19.1,20.906,18.714Z"/><path fill="url(#b)" fill-rule="evenodd" d="M22.2,2.8a1,1,0,0,0-.518,1.932,8.734,8.734,0,0,1,6.173,10.692,1,1,0,1,0,1.932.518A10.735,10.735,0,0,0,22.2,2.8Z"/><path fill="url(#c)" fill-rule="evenodd" d="M20.247,10.1a3.172,3.172,0,0,1,2.242,3.883,1,1,0,0,0,1.932.518,5.172,5.172,0,0,0-3.656-6.332,1,1,0,1,0-.518,1.931Z"/></svg>