<svg width="85px" height="85px" xmlns="http://www.w3.org/2000/svg" xmlns:xlink="http://www.w3.org/1999/xlink" viewBox="0 0 32 32"><defs><linearGradient id="a"><stop offset="0" stop-color="#00CC00"/><stop offset="1" stop-color="#00acea"/></linearGradient><linearGradient id="b" x1="1.999" x2="25" y1="15.997" y2="15.997" gradientUnits="userSpaceOnUse" xlink:href="#a"/></defs><path fill="url(#b)" d="M 2.34375 2 A 0.50004998 0.50004998 0 0 0 2 2.5 L 2 29.5 A 0.50004998 0.50004998 0 0 0 2.5 30 L 29.5 30 A 0.50004998 0.50004998 0 0 0 30 29.5 L 30 8.96875 L 30 2.5 A 0.50004998 0.50004998 0 0 0 29.5 2 L 2.5 2 A 0.50004998 0.50004998 0 0 0 2.34375 2 z M 3 3 L 29 3 L 29 6 L 3 6 L 3 3 z M 4.5 4 C 4.2238596 4 4 4.2239 4 4.5 C 4 4.7761 4.2238596 5 4.5 5 C 4.7761404 5 5 4.7761 5 4.5 C 5 4.2239 4.7761404 4 4.5 4 z M 6.5 4 C 6.223859 4 6 4.2238 6 4.5 C 6 4.7761 6.223859 5 6.5 5 C 6.7761411 5 7 4.7761 7 4.5 C 7 4.2238 6.7761411 4 6.5 4 z M 8.5 4 C 8.2238412 4 8 4.2238 8 4.5 C 8 4.7761 8.2238412 5 8.5 5 C 8.7761587 5 9 4.7761 9 4.5 C 9 4.2238 8.7761587 4 8.5 4 z M 3 7 L 29 7 L 29 8.96875 L 29 29 L 3 29 L 3 7 z M 25.34375 11 A 0.50004998 0.50004998 0 0 0 25 11.5 L 25 14.375 A 0.50004998 0.50004998 0 0 0 25 14.5 L 25 14.875 L 25 26.5 A 0.50004998 0.50004998 0 0 0 25.5 27 L 27.5 27 A 0.50004998 0.50004998 0 0 0 28 26.5 L 28 14.5 A 0.50004998 0.50004998 0 0 0 28 14.375 L 28 11.5 A 0.50004998 0.50004998 0 0 0 27.5 11 L 25.5 11 A 0.50004998 0.50004998 0 0 0 25.34375 11 z M 26 12 L 27 12 L 27 14 L 26 14 L 26 12 z M 20.34375 14 A 0.50004995 0.50004995 0 0 0 20 14.5 L 20 16 L 20 16.125 A 0.50004995 0.50004995 0 0 0 20 16.25 L 20 16.5 L 20 26.5 A 0.50004995 0.50004995 0 0 0 20.5 27 L 22.5 27 A 0.50004995 0.50004995 0 0 0 23 26.5 L 23 16.25 A 0.50004995 0.50004995 0 0 0 23 16.15625 L 23 16 L 23 14.5 A 0.50004995 0.50004995 0 0 0 22.5 14 L 20.5 14 A 0.50004995 0.50004995 0 0 0 20.34375 14 z M 10.34375 15 A 0.50004995 0.50004995 0 0 0 10 15.5 L 10 17.875 A 0.50004998 0.50004998 0 0 0 10 18 L 10 18.5 L 10 19 L 10 26.5 A 0.50004998 0.50004998 0 0 0 10.5 27 L 12.5 27 A 0.50004998 0.50004998 0 0 0 13 26.5 L 13 18 A 0.50004998 0.50004998 0 0 0 13 17.90625 L 13 15.5 A 0.50004995 0.50004995 0 0 0 12.5 15 L 10.5 15 A 0.50004995 0.50004995 0 0 0 10.34375 15 z M 21 15 L 22 15 L 22 15.75 L 21 15.75 L 21 15 z M 26 15 L 27 15 L 27 26 L 26 26 L 26 15 z M 11 16 L 12 16 L 12 17.5 L 11 17.5 L 11 16 z M 15.34375 16 A 0.50004995 0.50004995 0 0 0 15 16.5 L 15 19.375 A 0.50004992 0.50004992 0 0 0 15 19.5 L 15 20 L 15 26.5 A 0.50004992 0.50004992 0 0 0 15.5 27 L 17.5 27 A 0.50004992 0.50004992 0 0 0 18 26.5 L 18 19.5 A 0.50004992 0.50004992 0 0 0 18 19.40625 L 18 16.5 A 0.50004995 0.50004995 0 0 0 17.5 16 L 15.5 16 A 0.50004995 0.50004995 0 0 0 15.34375 16 z M 21 16.75 L 22 16.75 L 22 26 L 21 26 L 21 16.75 z M 16 17 L 17 17 L 17 19 L 16 19 L 16 17 z M 11 18.5 L 12 18.5 L 12 26 L 11 26 L 11 18.5 z M 5.34375 19 A 0.50004995 0.50004995 0 0 0 5 19.5 L 5 23 L 5 23.375 A 0.50004995 0.50004995 0 0 0 5 23.5 L 5 26.5 A 0.50004995 0.50004995 0 0 0 5.5 27 L 7.5 27 A 0.50004995 0.50004995 0 0 0 8 26.5 L 8 23.5 A 0.50004995 0.50004995 0 0 0 8 23.40625 L 8 23 L 8 19.5 A 0.50004995 0.50004995 0 0 0 7.5 19 L 5.5 19 A 0.50004995 0.50004995 0 0 0 5.34375 19 z M 6 20 L 7 20 L 7 23 L 6 23 L 6 20 z M 16 20 L 17 20 L 17 26 L 16 26 L 16 20 z M 6 24 L 7 24 L 7 26 L 6 26 L 6 24 z " color="#000" font-family="Sans" font-weight="400" overflow="visible" style="text-indent:0;text-align:start;line-height:normal;text-transform:none;block-progression:tb;marker:none;-inkscape-font-specification:Sans"/></svg>